<svg width="395.389648" height="792.000000" viewBox="0 0 395.39 792" fill="none" xmlns="http://www.w3.org/2000/svg" xmlns:xlink="http://www.w3.org/1999/xlink">
	<path id="path" d="M323.501 792C323.501 792 395.39 792 395.39 720.003L395.39 71.9969C395.389 0 323.501 0 323.501 0L71.8887 0C71.8887 0 0 0 0 71.9969L0 720.003C0.000976562 792 71.8887 792 71.8887 792L323.501 792ZM197.695 762.022C177.854 762.022 161.751 745.918 161.751 726.078C161.751 706.236 177.854 690.134 197.695 690.134C217.537 690.134 233.639 706.237 233.639 726.078C233.639 745.919 217.537 762.022 197.695 762.022ZM143.778 43.8879C143.778 39.431 145.899 35.944 148.558 35.944L246.83 35.944C249.454 35.944 251.611 39.5031 251.611 43.8879L251.611 46.009C251.611 50.4659 249.454 53.953 246.83 53.953L148.558 53.953C145.934 53.953 143.778 50.394 143.778 46.009L143.778 43.8879ZM35.9453 89.861L359.445 89.861L359.445 664.972L35.9453 664.972L35.9453 89.861Z" fill-rule="nonzero" fill="#515151"/>
</svg>
