<svg width="792.000000" height="395.390015" viewBox="0 0 792 395.39" fill="none" xmlns="http://www.w3.org/2000/svg" xmlns:xlink="http://www.w3.org/1999/xlink">
	<path id="path" d="M0 323.501C0 323.501 0 395.39 71.9971 395.39L720.003 395.39C792 395.389 792 323.501 792 323.501L792 71.889C792 71.889 792 0 720.003 0L71.9971 0C0 0.000976562 0 71.889 0 71.889L0 323.501ZM29.9785 197.695C29.9785 177.854 46.082 161.751 65.9219 161.751C85.7637 161.751 101.866 177.854 101.866 197.695C101.866 217.537 85.7627 233.639 65.9219 233.639C46.0811 233.639 29.9785 217.537 29.9785 197.695ZM748.112 143.778C752.569 143.778 756.056 145.899 756.056 148.558L756.056 246.83C756.056 249.454 752.497 251.611 748.112 251.611L745.991 251.611C741.534 251.611 738.047 249.454 738.047 246.83L738.047 148.558C738.047 145.934 741.606 143.778 745.991 143.778L748.112 143.778ZM702.139 35.9451L702.139 359.445L127.028 359.445L127.028 35.9451L702.139 35.9451Z" fill-rule="nonzero" fill="#515151"/>
</svg>
